<svg width="64" height="64" viewBox="0 0 64 64" fill="none" xmlns="http://www.w3.org/2000/svg">
  <rect width="64" height="64" rx="14" fill="#FFFDF9"/>
  <path d="M16 24V49C16 54.523 20.477 59 26 59H42C47.523 59 52 54.523 52 49V24" stroke="#623824" stroke-width="3.5" stroke-linecap="round"/>
  <path d="M9 22.5L18.4 10.8C19.35 9.62 20.79 8.94 22.3 8.94H45.7C47.21 8.94 48.65 9.62 49.6 10.8L59 22.5C58.3 27.4 54.97 29.85 50 29.85C46.25 29.85 43.58 28.21 42 24.93C40.32 28.21 37.65 29.85 34 29.85C30.35 29.85 27.68 28.21 26 24.93C24.42 28.21 21.75 29.85 18 29.85C13.03 29.85 9.7 27.4 9 22.5Z" fill="#FF9418"/>
  <path d="M12.5 25.5V36M55.5 25.5V36" stroke="#FF9418" stroke-width="4" stroke-linecap="round"/>
  <circle cx="23" cy="36" r="1.5" fill="#623824"/>
  <circle cx="23" cy="42" r="1.5" fill="#623824"/>
  <path d="M29 36H45M29 42H45" stroke="#623824" stroke-width="2.6" stroke-linecap="round"/>
  <path d="M25 49C30.5 54 37.5 54 43 49" stroke="#623824" stroke-width="3" stroke-linecap="round"/>
</svg>
